HIERARCHY
ROOT Hips
{
	OFFSET -3.958830 18.904000 13.208200
	CHANNELS 6 Xposition Yposition Zposition Zrotation Yrotation Xrotation 
	JOINT LHipJoint
	{
		OFFSET 0.000000 0.000000 0.000000
		CHANNELS 3 Zrotation Yrotation Xrotation
		JOINT LeftUpLeg
		{
			OFFSET 1.800000 -1.400000 0.085000
			CHANNELS 3 Zrotation Yrotation Xrotation
			JOINT LeftLeg
			{
				OFFSET 2.215000 -6.000000 0.000000
				CHANNELS 3 Zrotation Yrotation Xrotation
				JOINT LeftFoot
				{
					OFFSET 2.500000 -6.900000 0.000000
					CHANNELS 3 Zrotation Yrotation Xrotation
					JOINT LeftToeBase
					{
						OFFSET 0.200000 -0.500000 1.950000
						CHANNELS 3 Zrotation Yrotation Xrotation
						End Site
						{
							OFFSET 0.000000 0.000000 0.000000
						}
					}
				}
			}
		}
	}
	JOINT RHipJoint
	{
		OFFSET 0.000000 0.000000 0.000000
		CHANNELS 3 Zrotation Yrotation Xrotation
		JOINT RightUpLeg
		{
			OFFSET -1.800000 -1.400000 0.085000
			CHANNELS 3 Zrotation Yrotation Xrotation
			JOINT RightLeg
			{
				OFFSET -2.215000 -6.000000 0.000000
				CHANNELS 3 Zrotation Yrotation Xrotation
				JOINT RightFoot
				{
					OFFSET -2.500000 -6.900000 0.000000
					CHANNELS 3 Zrotation Yrotation Xrotation
					JOINT RightToeBase
					{
						OFFSET -0.200000 -0.500000 1.950000
						CHANNELS 3 Zrotation Yrotation Xrotation
						End Site
						{
							OFFSET 0.000000 0.000000 0.000000
						}
					}
				}
			}
		}
	}
	JOINT LowerBack
	{
		OFFSET 0.000000 0.000000 0.000000
		CHANNELS 3 Zrotation Yrotation Xrotation
		JOINT Spine
		{
			OFFSET -0.087000 1.940000 -0.288900
			CHANNELS 3 Zrotation Yrotation Xrotation
			JOINT Spine1
			{
				OFFSET 0.000000 1.950000 0.060000
				CHANNELS 3 Zrotation Yrotation Xrotation
				JOINT Neck
				{
					OFFSET 0.000000 0.000000 0.000000
					CHANNELS 3 Zrotation Yrotation Xrotation
					JOINT Neck1
					{
						OFFSET 0.000000 1.600000 0.340000
						CHANNELS 3 Zrotation Yrotation Xrotation
						JOINT Head
						{
							OFFSET 0.000000 1.667000 -0.240000
							CHANNELS 3 Zrotation Yrotation Xrotation
							End Site
							{
								OFFSET 0.000000 0.000000 0.000000
							}
						}
					}
				}
				JOINT LeftShoulder
				{
					OFFSET 0.000000 0.000000 0.000000
					CHANNELS 3 Zrotation Yrotation Xrotation
					JOINT LeftArm
					{
						OFFSET 2.700000 1.550000 -0.730000
						CHANNELS 3 Zrotation Yrotation Xrotation
						JOINT LeftForeArm
						{
							OFFSET 5.450000 0.000000 0.000000
							CHANNELS 3 Zrotation Yrotation Xrotation
							JOINT LeftHand
							{
								OFFSET 3.450000 0.000000 0.000000
								CHANNELS 3 Zrotation Yrotation Xrotation
								JOINT LeftHandIndex1
								{
									OFFSET 0.750000 0.000000 0.000000
									CHANNELS 3 Zrotation Yrotation Xrotation
									End Site
									{
										OFFSET 0.000000 0.000000 0.000000
									}
								}
							}
						}
					}
				}
				JOINT RightShoulder
				{
					OFFSET 0.000000 0.000000 0.000000
					CHANNELS 3 Zrotation Yrotation Xrotation
					JOINT RightArm
					{
						OFFSET -2.700000 1.550000 -0.730000
						CHANNELS 3 Zrotation Yrotation Xrotation
						JOINT RightForeArm
						{
							OFFSET -5.450000 0.000000 0.000000
							CHANNELS 3 Zrotation Yrotation Xrotation
							JOINT RightHand
							{
								OFFSET -3.450000 0.000000 0.000000
								CHANNELS 3 Zrotation Yrotation Xrotation
								JOINT RightHandIndex1
								{
									OFFSET -0.750000 0.000000 0.000000
									CHANNELS 3 Zrotation Yrotation Xrotation
									End Site
									{
										OFFSET 0.000000 0.000000 0.000000
									}
								}
							}
						}
					}
				}
			}
		}
	}
}
MOTION
Frames: 6
Frame Time: 0.016667
-0.475060 16.853440 -1.582480 -1.647531 -1.575880 3.906671 -14.989459 13.245838 2.255343 17.949594 0.169804 -15.799991 -1.817806 5.912341 15.455912 -0.295735 4.192181 3.024954 0.226540 0.185890 0.156930 18.304600 -11.429044 2.478483 -21.219136 0.542470 -11.709936 9.211182 -6.338534 12.990718 -0.144194 -4.317766 2.772553 0.241020 0.169370 0.089470 -3.873797 -0.513470 -6.718733 4.222812 -0.238778 2.696310 -4.748230 0.081864 9.108035 1.180679 -3.384895 -8.891415 -6.020080 5.570991 29.659417 -2.935060 5.163370 -6.770810 -20.603347 -10.899224 6.228647 -45.487349 -0.684145 -1.652554 -17.284135 -10.724007 0.137766 -3.894372 3.031257 0.081520 0.173090 -0.066500 0.088230 18.785751 15.756407 4.118589 67.798644 25.942996 10.126258 44.706004 36.545928 12.265422 2.390813 -1.815823 -0.130260 0.161420 -0.015390 -0.093310 
-0.491720 16.823490 -1.577560 -1.501781 -2.102172 3.899423 -14.983294 13.243755 2.219681 18.015944 0.230985 -15.344225 -1.717051 5.904704 15.420480 -0.303666 4.219554 3.020833 0.234780 0.199380 0.158260 18.313869 -11.439054 2.477136 -21.231115 0.483379 -11.295602 8.877639 -6.194293 12.429736 -0.144455 -4.318180 2.776226 0.258400 0.179920 0.094600 -3.889303 -0.473090 -6.675268 4.372431 -0.137460 2.396811 -5.065667 0.190803 9.365384 1.415155 -3.460500 -8.833719 -6.063086 5.790733 29.148395 -3.172110 5.304470 -6.835400 -20.144066 -10.531510 6.059590 -45.416208 -0.927501 -1.640947 -17.540873 -11.743572 0.297867 -3.907225 3.042508 0.069200 0.188270 -0.074790 0.091290 17.865736 15.453295 4.081532 66.882273 26.564687 11.165685 49.805140 39.251543 15.188901 2.378074 -1.868055 -0.132490 0.165380 -0.014620 -0.092700 
-0.524730 16.762430 -1.566660 -1.015124 -2.738910 3.854766 -14.981012 13.233898 2.162633 17.883389 0.290992 -14.366300 -1.688981 5.838129 14.938726 -0.308025 4.239348 3.035899 0.238980 0.214690 0.152780 18.322840 -11.433255 2.481907 -21.504432 0.370408 -10.342890 8.224369 -5.917227 11.169750 -0.144520 -4.350766 2.777046 0.283380 0.211500 0.106220 -3.898138 -0.442952 -6.602052 4.459973 -0.001904 1.867129 -5.825232 0.350833 9.729035 1.880985 -3.457497 -8.673571 -5.892527 6.288858 27.988849 -3.624830 5.747790 -6.552210 -20.281031 -9.838995 5.622698 -44.223709 -1.179045 -1.525332 -17.745231 -12.869835 0.506566 -3.943013 3.064837 0.032350 0.228110 -0.098250 0.098510 17.075246 14.721991 4.160869 65.017856 26.787564 12.763388 60.093918 45.838872 22.576290 2.361758 -1.954170 -0.135690 0.170210 -0.011860 -0.086440 
-0.554020 16.680180 -1.555010 -0.604135 -3.260022 3.824455 -14.974223 13.215759 2.133853 18.006323 0.366046 -13.375901 -2.049855 5.918524 14.529964 -0.311033 4.329454 3.021449 0.245520 0.225690 0.152330 18.339052 -11.387798 2.494998 -21.737505 0.285265 -9.413112 7.959584 -5.761305 10.060595 -0.152396 -4.417691 2.762814 0.307590 0.237440 0.116470 -3.928271 -0.471694 -6.557191 5.282750 0.032906 1.485634 -6.498404 0.361545 9.996337 2.321515 -3.949679 -8.608655 -6.627378 7.261241 26.688993 -4.230610 6.375720 -6.417750 -20.240600 -8.979967 5.082062 -43.468032 -1.509320 -1.403701 -18.675868 -13.928684 0.748633 -3.975487 3.089901 0.006700 0.261980 -0.120510 0.103420 16.125766 14.074708 4.423667 61.458665 26.217388 14.293563 77.257857 54.012639 36.515017 2.395357 -1.993100 -0.143700 0.174440 -0.007540 -0.086780 
-0.575140 16.601410 -1.539020 -0.432416 -2.935371 3.624918 -14.961407 13.149560 2.166231 18.721232 0.459987 -12.747980 -3.045480 6.244035 14.296650 -0.283299 4.493505 2.964347 0.248330 0.235240 0.152770 18.360401 -11.351550 2.497042 -21.860617 0.165155 -8.521050 8.113102 -5.806438 9.541323 -0.172624 -4.515129 2.735248 0.317160 0.244650 0.124530 -3.984295 -0.431856 -6.582357 6.435185 -0.116433 1.423170 -7.337696 0.136198 10.241703 2.955219 -3.932617 -8.687712 -6.525144 7.919636 26.170967 -4.663530 6.866550 -6.279370 -20.445313 -8.655662 4.884483 -42.482668 -1.198642 -1.603421 -19.188856 -15.326374 1.031858 -3.979990 3.116354 -0.011570 0.278870 -0.127140 0.104210 15.016080 13.579179 4.621191 57.153464 25.876597 15.132736 99.348144 59.337996 56.161943 2.503345 -1.807294 -0.139720 0.169040 -0.007930 -0.084630 
-0.585140 16.532420 -1.529260 -0.082419 -2.269499 3.429921 -14.954023 13.130600 2.232323 19.358746 0.486322 -12.823773 -4.028440 6.700637 14.890918 -0.274409 4.705287 2.881828 0.235640 0.216400 0.166520 18.366377 -11.360520 2.443001 -22.256453 0.036453 -8.373783 8.127019 -6.033854 10.305474 -0.174152 -4.580344 2.704623 0.313300 0.247000 0.129270 -4.012037 -0.434181 -6.627323 7.376376 -0.442669 1.747496 -8.427732 -0.187628 10.250567 3.705377 -3.704115 -8.793302 -6.079381 8.383777 25.590902 -5.568280 7.573780 -6.462260 -20.821861 -8.612218 4.779270 -41.126099 -0.706908 -1.855548 -19.453611 -16.116568 1.183897 -3.988296 3.112608 -0.008820 0.293110 -0.128770 0.091240 13.840627 13.164112 4.822688 52.823268 24.770511 13.923846 120.499705 59.039021 77.225219 2.370626 -1.699223 -0.152570 0.172310 0.000670 -0.098970 
